<svg width="24" height="24" viewBox="0 0 24 24" fill="none" xmlns="http://www.w3.org/2000/svg">
<path fill-rule="evenodd" clip-rule="evenodd" d="M5.0625 10.1125C5.0625 7.98937 6.77531 6.23438 8.89973 6.23438H18.4132L16.4843 10.6349C17.346 11.1122 18.9844 12.2704 18.9844 13.9682C18.9844 16.0913 16.691 17.8125 14.5666 17.8125H5.0625L7.02528 13.4651C5.39803 12.5385 5.0625 10.9534 5.0625 10.1125ZM10.7106 7.27148L15.0706 7.27513L13.3974 11.0693L14.1971 11.5122C14.8186 11.8565 15.6088 12.7171 15.6088 13.9683C15.6088 15.5381 14.3357 16.8095 12.7666 16.8095H8.41651L10.1158 13.0457L9.32204 12.5938C8.12111 11.9099 7.86621 10.7451 7.86621 10.1127C7.86621 8.54287 9.13934 7.27513 10.7084 7.27513L10.7106 7.27148Z" fill="url(#paint0_linear_73_801)"/>
<defs>
<linearGradient id="paint0_linear_73_801" x1="12.0234" y1="6.23437" x2="12.0234" y2="17.8125" gradientUnits="userSpaceOnUse">
<stop stop-color="#ECD3FF"/>
<stop offset="1" stop-color="#C1DEFF"/>
</linearGradient>
</defs>
</svg>
