<svg width="16" height="16" viewBox="0 0 16 16" fill="none" xmlns="http://www.w3.org/2000/svg">
<g id="Magic">
<path id="Union" fill-rule="evenodd" clip-rule="evenodd" d="M10.0401 1.99809C10.0391 1.97676 10.0215 1.95999 10.0002 1.95999C9.97881 1.95999 9.96122 1.97676 9.9602 1.99809C9.92693 2.69675 9.8271 3.77468 9.63592 4.7372C9.54032 5.21856 9.42214 5.66964 9.27863 6.02955C9.13425 6.39165 8.96744 6.65298 8.77958 6.76569L8.77947 6.76551L8.77616 6.76799C8.64998 6.86263 8.317 7.01119 7.73182 7.13587C7.14834 7.26019 6.31785 7.35999 5.20016 7.35999C5.17917 7.35999 5.16175 7.37622 5.16026 7.39716C5.15877 7.41809 5.17372 7.43662 5.1945 7.43959C5.65972 7.50605 6.39785 7.6457 7.09905 7.84842C7.44964 7.94977 7.79024 8.06668 8.08254 8.19774C8.37551 8.3291 8.61698 8.47338 8.77187 8.62828L8.7717 8.62845L8.77517 8.63123C8.85222 8.69287 8.9558 8.82309 9.07042 9.03993C9.18457 9.25589 9.30824 9.55503 9.42684 9.95146C9.66402 10.7443 9.88032 11.9243 9.9602 13.6019C9.96122 13.6232 9.97881 13.64 10.0002 13.64C10.0215 13.64 10.0391 13.6232 10.0401 13.6019C10.12 11.9243 10.3363 10.7443 10.5735 9.95146C10.6921 9.55503 10.8157 9.25589 10.9299 9.03993C11.0445 8.82309 11.1481 8.69287 11.2251 8.63123L11.2253 8.63142L11.2284 8.62828C11.3833 8.47338 11.6248 8.3291 11.9178 8.19774C12.2101 8.06668 12.5507 7.94977 12.9013 7.84842C13.6025 7.6457 14.3406 7.50605 14.8058 7.43959C14.8266 7.43662 14.8415 7.41809 14.8401 7.39716C14.8386 7.37622 14.8211 7.35999 14.8002 7.35999C13.6825 7.35999 12.852 7.26019 12.2685 7.13587C11.6833 7.01119 11.3503 6.86263 11.2242 6.76799L11.2243 6.76782L11.2207 6.76569C11.0329 6.65298 10.8661 6.39165 10.7217 6.02955C10.5782 5.66964 10.46 5.21856 10.3644 4.7372C10.1732 3.77468 10.0734 2.69675 10.0401 1.99809Z" fill="white"/>
<path id="Union_2" fill-rule="evenodd" clip-rule="evenodd" d="M4.0409 1.99822C4.03995 1.97684 4.02234 1.95999 4.00094 1.95999C3.97954 1.95999 3.96192 1.97684 3.96098 1.99822C3.94714 2.31077 3.90562 2.79298 3.82619 3.22325C3.78645 3.43848 3.73747 3.63937 3.67828 3.79909C3.64868 3.87893 3.61689 3.94752 3.583 4.00213C3.54893 4.05704 3.51406 4.09563 3.47925 4.11811L3.47912 4.11792L3.47582 4.12059C3.42748 4.15959 3.29306 4.22519 3.05033 4.28083C2.80929 4.33608 2.46512 4.38068 2.00094 4.38068C1.98003 4.38068 1.96265 4.39679 1.96106 4.41763C1.95946 4.43848 1.9742 4.45704 1.99486 4.46022C2.18775 4.48986 2.49409 4.55222 2.78489 4.64267C2.93028 4.68789 3.07099 4.73989 3.19137 4.79796C3.31235 4.85632 3.40995 4.91947 3.47164 4.98584L3.47146 4.98601L3.47485 4.98893C3.50349 5.01358 3.54506 5.06877 3.59238 5.16509C3.63923 5.26044 3.69033 5.39325 3.73948 5.57002C3.83778 5.92353 3.92774 6.45086 3.96098 7.20176C3.96192 7.22314 3.97954 7.23999 4.00094 7.23999C4.02234 7.23999 4.03995 7.22314 4.0409 7.20176C4.07414 6.45086 4.16409 5.92353 4.26239 5.57002C4.31155 5.39325 4.36265 5.26044 4.4095 5.16509C4.45682 5.06877 4.49839 5.01358 4.52703 4.98893L4.52719 4.98912L4.53024 4.98584C4.59193 4.91947 4.68953 4.85632 4.81051 4.79796C4.93088 4.73989 5.0716 4.68789 5.21699 4.64267C5.50779 4.55222 5.81413 4.48986 6.00702 4.46022C6.02768 4.45704 6.04242 4.43848 6.04082 4.41763C6.03923 4.39679 6.02185 4.38068 6.00094 4.38068C5.53676 4.38068 5.19259 4.33608 4.95154 4.28083C4.70881 4.22519 4.5744 4.15959 4.52606 4.12059L4.5262 4.12041L4.52263 4.11811C4.48782 4.09563 4.45295 4.05704 4.41888 4.00213C4.38499 3.94752 4.35319 3.87893 4.3236 3.79909C4.26441 3.63937 4.21543 3.43848 4.17569 3.22325C4.09626 2.79298 4.05473 2.31077 4.0409 1.99822Z" fill="white"/>
<path id="Union_3" fill-rule="evenodd" clip-rule="evenodd" d="M6.0409 8.79824C6.03995 8.77686 6.02234 8.76001 6.00094 8.76001C5.97954 8.76001 5.96192 8.77686 5.96098 8.79824C5.94714 9.11079 5.90562 9.593 5.82619 10.0233C5.78645 10.2385 5.73747 10.4394 5.67828 10.5991C5.64868 10.6789 5.61689 10.7475 5.583 10.8021C5.54893 10.8571 5.51406 10.8957 5.47925 10.9181L5.47912 10.9179L5.47582 10.9206C5.42748 10.9596 5.29306 11.0252 5.05033 11.0808C4.80929 11.1361 4.46512 11.1807 4.00094 11.1807C3.98003 11.1807 3.96265 11.1968 3.96106 11.2177C3.95946 11.2385 3.9742 11.2571 3.99486 11.2602C4.18775 11.2899 4.49409 11.3522 4.78489 11.4427C4.93028 11.4879 5.07099 11.5399 5.19137 11.598C5.31235 11.6563 5.40995 11.7195 5.47164 11.7859L5.47146 11.786L5.47485 11.7889C5.50349 11.8136 5.54506 11.8688 5.59238 11.9651C5.63923 12.0605 5.69033 12.1933 5.73948 12.37C5.83778 12.7235 5.92774 13.2509 5.96098 14.0018C5.96192 14.0232 5.97954 14.04 6.00094 14.04C6.02234 14.04 6.03995 14.0232 6.0409 14.0018C6.07414 13.2509 6.16409 12.7235 6.26239 12.37C6.31155 12.1933 6.36265 12.0605 6.4095 11.9651C6.45682 11.8688 6.49839 11.8136 6.52703 11.7889L6.5272 11.7891L6.53024 11.7859C6.59193 11.7195 6.68953 11.6563 6.81051 11.598C6.93089 11.5399 7.0716 11.4879 7.21699 11.4427C7.50779 11.3522 7.81413 11.2899 8.00702 11.2602C8.02768 11.2571 8.04242 11.2385 8.04082 11.2177C8.03923 11.1968 8.02185 11.1807 8.00094 11.1807C7.53676 11.1807 7.19259 11.1361 6.95154 11.0808C6.70881 11.0252 6.5744 10.9596 6.52606 10.9206L6.5262 10.9204L6.52263 10.9181C6.48782 10.8957 6.45295 10.8571 6.41888 10.8021C6.38499 10.7475 6.35319 10.6789 6.3236 10.5991C6.26441 10.4394 6.21543 10.2385 6.17569 10.0233C6.09626 9.593 6.05473 9.11079 6.0409 8.79824Z" fill="white"/>
</g>
</svg>
